<svg xmlns="http://www.w3.org/2000/svg" viewBox="0 0 1191 619" role="img" aria-labelledby="title desc">
  <title id="title">THERIS, Thermal Research Institute of Israel</title>
  <desc id="desc">THERIS flame mark, institute name, and theris@bgu.ac.il</desc>
  <rect width="1191" height="619" fill="#fff"/>
  <g>
    <path fill="#ff9d1b" d="M255 20c-80 40-115 101-111 168 3 42 25 72 60 101-54-20-91-53-105-103-48 46-68 102-56 157 11-42 37-73 78-92-27 30-41 67-39 104 3 69 57 113 132 110 89-3 148-69 146-163-1-69-35-119-71-165C250 94 219 60 255 20Z"/>
    <path fill="#ff4b32" fill-rule="evenodd" d="M220 183c-81 0-147 64-147 143 0 80 66 127 147 127s147-47 147-127c0-79-66-143-147-143Zm0 34c61 0 110 48 110 108 0 59-46 91-110 91s-110-32-110-91c0-60 49-108 110-108Z" clip-rule="evenodd"/>
    <path fill="#ff9d1b" d="M223 231c-29 37-39 64-29 86 6 14 18 25 36 36-9-20-6-37 8-54 14-16 19-34 9-57-9 19-19 30-36 38 9-18 13-34 12-49Z"/>
  </g>
  <text x="388" y="324" fill="#176787" font-family="Arial, Helvetica, sans-serif" font-size="120" font-weight="700" letter-spacing="10">THERIS</text>
  <text x="46" y="453" fill="#176787" font-family="Arial, Helvetica, sans-serif" font-size="62" font-weight="400">Thermal Research Institute of Israel</text>
  <text x="310" y="548" fill="#4d8494" font-family="Arial, Helvetica, sans-serif" font-size="62" font-weight="600" text-decoration="underline">theris@bgu.ac.il</text>
</svg>
